<?xml version="1.0" encoding="UTF-8"?>
<svg width="340px" height="353px" viewBox="0 0 340 353" version="1.1" xmlns="http://www.w3.org/2000/svg" xmlns:xlink="http://www.w3.org/1999/xlink">
    <title>illus-empty_state</title>
    <desc>Created with Sketch.</desc>
    <defs>
        <circle id="path-1" cx="170" cy="170" r="170"></circle>
    </defs>
    <g id="04-General-Settings" stroke="none" stroke-width="1" fill="none" fill-rule="evenodd" opacity="0.542154948">
        <g id="04_Gen-Settings_3-1-Branch-Empty-State" transform="translate(-578.000000, -229.000000)">
            <g id="CONTENT" transform="translate(80.000000, 186.000000)">
                <g id="illus-empty_state" transform="translate(498.000000, 43.000000)">
                    <g id="Top-Leaves">
                        <mask id="mask-2" fill="white">
                            <use xlink:href="#path-1"></use>
                        </mask>
                        <use id="Mask" fill="#E1E5EA" xlink:href="#path-1"></use>
                        <path d="M205.642236,147.067307 C199.06439,147.192023 188.078234,146.915461 185.047952,139.760206 C182.141631,132.895568 189.108604,129.883964 194.334743,132.480672 C197.547647,134.079947 200.593577,136.25766 202.70889,139.262546 C203.266284,140.05412 204.655755,144.301388 205.552802,146.171477 C205.319968,143.778483 205.135581,141.383132 205.001955,138.992681 C204.869478,136.620301 205.145305,133.875459 205.286856,131.194454 C205.13838,131.034179 205.038291,130.812911 204.996147,130.513097 C204.919889,131.119676 205.00386,131.140805 204.709594,130.705367 C201.966931,126.593553 199.663621,121.960436 199.347103,116.867215 C199.079186,112.547632 202.619896,104.374667 207.638569,110.03248 C209.883886,112.559284 209.300701,130.305117 205.928517,131.392667 C206.829311,137.272944 207.961923,143.143326 209.380914,148.939133 C209.593579,148.901481 209.810431,148.898155 210.024911,148.927475 C210.004563,147.486554 210.002391,145.914172 210.06124,145.373556 C210.56671,140.716066 214.44769,131.260221 220.626022,133.096079 C225.373639,134.507041 222.463759,140.31494 220.847957,142.856999 C218.247123,146.949693 215.305053,148.721907 211.579341,150.850216 C211.50476,151.729739 210.938981,152.241059 210.270949,152.407277 C212.765708,161.767251 216.043554,170.896161 220.332882,179.519099 C220.900601,176.797611 221.598161,173.347299 222.02886,172.661025 C224.131143,169.306549 228.785336,165.209333 233.076891,167.194221 C242.090636,171.368516 232.306846,183.365998 224.632934,184.671039 C224.314044,185.113066 223.976418,185.468507 223.617477,185.672357 C225.108419,188.275242 226.70189,190.823991 228.407135,193.307052 C230.964132,197.041964 233.712513,200.764857 236.593636,204.465963 C236.682577,201.570866 237.822962,195.118313 238.146352,194.425066 C240.113934,190.214854 245.785368,185.882818 250.386543,188.873739 C255.561317,192.245883 250.869217,198.618256 247.917526,201.502122 C246.707824,202.684507 240.723951,207.017523 238.61331,207.037094 C245.574387,215.764892 253.25778,224.343367 261.069725,232.611598 C260.422531,228.910101 259.577179,218.716521 259.671574,217.585246 C260.156454,211.745634 263.984199,202.405365 271.525322,204.681279 C278.841534,206.885861 275.604971,216.588883 273.100564,221.214297 C271.583631,224.013672 269.48609,226.858129 266.956654,228.81051 C265.950998,229.586299 264.266528,230.048235 263.411302,230.88342 C262.554645,231.720535 262.918932,232.812365 262.003003,233.600892 C266.224836,238.049864 270.476113,242.406086 274.666582,246.641413 C276.643727,248.640522 278.656803,250.600723 280.689765,252.536556 C281.802,252.073995 283.387958,252.682261 283.305358,254.26156 C283.293359,254.490985 283.240472,254.688838 283.169167,254.870341 C284.709778,256.307501 286.260228,257.734478 287.822783,259.146039 C287.787127,258.734882 287.79752,258.15494 287.86931,257.354185 C286.346652,259.525958 286.970942,254.477461 286.808854,253.35746 C286.290146,249.766369 285.294407,246.285987 285.32784,242.622238 C285.376927,237.324849 288.722654,228.444791 295.763202,231.599257 C302.23706,234.494577 299.881637,242.345915 297.439469,247.268185 C295.893408,250.383026 293.7779,253.164344 291.566908,255.826957 C290.587246,257.008046 289.340606,259.227084 288.556511,259.80786 C297.259757,267.631354 306.259568,275.121994 315.127895,282.76289 C315.247411,282.244185 315.346101,281.729737 315.43108,281.248676 C315.259407,281.442965 315.02602,281.533699 314.726523,281.515965 C313.671955,276.26294 306.392981,248.235261 321.510325,253.183502 C331.747728,256.543967 324.521662,277.091512 316.886371,284.279036 C321.519822,288.292188 326.109386,292.356537 330.591572,296.542312 C333.834878,299.570935 336.982352,302.703533 340.010063,305.940189 C338.443339,301.749019 336.967102,296.323378 337.936035,292.005214 C339.346754,285.721342 345.956682,279.788077 352.410241,283.363804 C364.563363,290.126566 344.234103,300.6253 341.818882,307.904377 C351.443417,318.522203 359.660411,330.318043 365.150896,343.754969 C371.122258,358.367426 376.665459,378.001896 373.599774,394.350053 C374.242953,386.182756 371.030231,375.643496 369.399688,369.368444 C366.845165,359.537195 363.215945,349.971855 358.43343,341.018729 C350.772852,326.679368 340.654042,314.506787 328.971821,303.455216 C324.680113,304.955257 319.792075,308.51655 317.354105,309.571569 C312.884132,311.506309 304.30197,314.279077 301.454254,308.185544 C298.654402,302.193502 305.801243,298.842448 310.230298,297.499423 C314.510669,296.203429 318.369451,296.359924 322.362306,297.42228 C315.041393,290.9106 307.508967,284.643282 300.017357,278.332631 C293.298407,283.85958 283.648534,299.663352 275.31117,291.452463 C265.74375,282.030045 284.042124,272.453224 291.837976,273.201009 C292.794971,273.292059 293.720883,273.494498 294.623701,273.769958 C286.673615,266.999195 278.846468,260.089098 271.444195,252.69305 C267.129178,253.482307 254.525417,272.389854 245.970992,264.097345 C241.69725,259.954617 243.160645,253.502307 247.291689,249.812984 C251.438851,246.107789 257.451672,246.113907 262.562068,247.362015 C264.77123,247.89868 266.809315,248.923254 268.709391,250.171974 C268.790257,250.17622 268.867774,250.18096 268.945326,250.185032 C261.661212,242.829965 254.332547,235.310049 247.273864,227.53346 C247.150822,227.573144 247.024395,227.613987 246.897933,227.655497 C246.471036,228.180129 245.756466,228.371991 245.101863,228.256026 C239.379307,230.223297 231.594118,233.134888 225.646876,231.989293 C221.545387,231.199439 217.824141,227.854136 221.295697,223.735609 C224.118202,220.386186 231.775798,220.86723 235.510216,221.660546 C238.098171,222.211084 241.012007,224.24467 243.808307,225.666181 C244.023133,225.231396 244.397982,224.952142 244.825056,224.818079 C237.854774,217.003331 231.203698,208.918446 225.171184,200.482173 C218.951949,201.448969 210.420642,208.4597 204.940701,201.924988 C199.22559,195.108414 209.973784,191.129918 215.083026,191.777414 C216.808352,191.995752 218.509468,192.486343 220.151838,193.134354 C215.762153,186.188759 212.409766,178.764631 210.054595,170.967535 C209.995882,170.997222 209.949031,171.028868 209.882364,171.058137 C209.943937,171.024588 209.993022,170.988378 210.050618,170.95462 C209.815586,170.174535 209.590043,169.390935 209.37528,168.604558 C208.976182,168.381632 208.603249,168.217595 208.424667,168.150034 C210.746064,169.755931 200.952473,170.541712 199.118304,170.688823 C195.063535,171.013579 189.631603,171.134937 186.656779,167.802081 C184.158536,165.002514 184.304404,160.866503 187.36271,158.523916 C191.049032,155.700029 196.768647,157.49976 200.479975,159.16661 C201.909924,159.809484 205.564355,161.865241 208.274772,164.179058 C207.916656,162.575277 207.59716,160.957474 207.318236,159.326421 C206.625354,155.274181 206.062783,151.175556 205.642236,147.067307 Z M238.846709,125.04445 C237.45887,124.563472 236.062276,124.121152 234.655579,123.757595 C235.889432,123.836133 237.122377,123.946342 238.35477,124.067093 C238.516401,124.39487 238.684276,124.717689 238.846709,125.04445 Z M236.575895,107.396693 C237.354395,106.562692 238.100198,105.666283 238.838816,104.785261 C238.859708,104.729609 238.782415,104.921019 238.641039,105.261972 C237.924289,106.190646 237.237001,107.132689 236.750865,107.866181 C236.691165,107.710138 236.635017,107.552706 236.575895,107.396693 Z M251.830692,131.060104 C251.661472,130.934299 251.494724,130.80814 251.327161,130.681939 C251.763787,130.510164 252.12085,130.233719 252.426149,130.024611 C252.067983,130.462848 251.882675,130.800974 251.830692,131.060104 Z M283.17333,175.686975 C283.24323,175.673578 283.310896,175.662196 283.378561,175.650815 C283.56775,175.839966 283.756883,176.030181 283.944955,176.220341 C283.688156,176.041507 283.433592,175.860657 283.17333,175.686975 Z M277.750157,178.955038 C277.997792,178.881634 278.225365,178.805044 278.420416,178.719278 C278.230841,178.802131 278.04216,178.888231 277.852529,178.972148 C277.816654,178.965997 277.786032,178.961189 277.750157,178.955038 Z M266.940194,182.277627 C267.047503,182.383538 268.258717,183.40723 266.940194,182.277627 Z M311.16371,203.515505 C310.969821,203.101731 310.701614,202.770285 310.377318,202.605686 C311.267613,202.145726 312.129649,201.753622 312.926742,201.474563 C313.4847,202.079915 314.04202,202.684345 314.600024,203.288811 C313.493356,203.371153 312.295029,203.368674 311.16371,203.515505 Z M298.549938,208.687235 C298.805804,208.571593 299.104264,208.464588 299.430154,208.362225 C299.066078,208.621531 298.702601,208.884069 298.326285,209.112863 C298.3926,208.976599 298.469269,208.833412 298.549938,208.687235 Z M360.681211,217.850252 C359.671771,218.659983 358.855234,219.820089 358.390903,220.930269 C359.164111,219.909086 359.927302,218.882401 360.681211,217.850252 Z M220.010636,53.0380655 C220.095812,53.4848705 220.146354,53.9311483 220.185879,54.3787847 C220.040091,53.7305544 219.897942,53.0825152 219.760341,52.4347149 C219.872209,53.5047695 219.866229,54.6306266 219.819281,55.7724131 C218.907433,54.5634874 219.238778,52.2394331 219.370516,50.5403052 C219.49801,51.172077 219.625537,51.8032049 219.760341,52.4347149 C219.688571,51.7490441 219.556023,51.091823 219.376579,50.4592603 C219.407635,50.0398685 219.424778,49.659782 219.404492,49.3500528 C219.503785,49.8582987 220.012658,53.0517322 220.010636,53.0380655 Z M388.363432,319.579676 C388.191265,321.94882 387.764632,324.118051 386.967894,325.90697 C387.565361,323.870218 388.023719,321.753472 388.363432,319.579676 Z" id="Leaf-Bottom" fill="#BDD6D9" mask="url(#mask-2)"></path>
                        <g mask="url(#mask-2)" fill="#BDD6D9" id="Leaf-Bottom" opacity="0.644856771">
                            <g transform="translate(180.000000, 132.500000) scale(-1, 1) translate(-180.000000, -132.500000) translate(-16.000000, 2.000000)">
                                <path d="M33.6663385,25.302269 C35.5946592,26.258786 37.4227657,27.5612642 38.6923347,29.3584698 C39.122825,29.9676988 40.3802762,33.9994374 40.7707656,34.0198722 C36.8692945,34.1070162 29.9610575,34.052702 28.0925914,29.6561169 C26.3482752,25.5504157 30.5297137,23.7491925 33.6663385,25.302269 Z M69.8059467,104.128487 C70.597298,104.804097 69.8703515,104.191832 69.8059467,104.128487 Z M38.517487,45.5725069 C39.3757136,45.9570063 41.5690306,47.1865435 43.1957686,48.570424 C42.980835,47.6112119 42.7890796,46.6436131 42.6216749,45.668089 C41.9334417,41.6570226 41.4594238,37.5699695 41.2314894,33.506594 C41.1519793,32.0876864 41.3175252,30.4460118 41.4024813,28.8425182 C41.313369,28.7466583 41.2532973,28.6143195 41.2280032,28.4350025 C41.1822351,28.7977937 41.2326328,28.8104307 41.0560199,28.5499978 C39.4099285,26.090745 38.0275274,23.3197037 37.8375597,20.2734768 C37.6767615,17.6899589 39.8018248,12.8017546 42.8139324,16.1856608 C44.1615269,17.6969279 43.8115108,28.3106107 41.7875932,28.9610679 C42.3282319,32.4780289 43.0080031,35.9890714 43.8596534,39.4555105 C43.9872908,39.432991 44.1174408,39.4310023 44.2461672,39.4485383 C44.2339551,38.5867317 44.2326511,37.6462988 44.2679714,37.3229594 C44.5713445,34.5373409 46.9006315,28.8818531 50.608743,29.9798696 C53.4581681,30.8237576 51.7117163,34.2974292 50.7419444,35.8178206 C49.1809752,38.2656377 47.4152036,39.3255891 45.179105,40.5985187 C45.1343431,41.1245564 44.7947738,41.4303741 44.3938343,41.5297879 C45.8911394,47.127936 47.8584369,52.5878856 50.4328065,57.7452166 C50.77354,56.1175096 51.1922017,54.0538973 51.4506987,53.6434408 C52.7124469,51.6371478 55.5058008,49.1866255 58.0815067,50.373776 C63.4913768,52.8703984 57.6193413,60.0460252 53.013612,60.8265627 C52.8222202,61.0909366 52.6195844,61.303524 52.4041549,61.4254452 C53.2989882,62.9822162 54.2553579,64.5066088 55.2788124,65.9917136 C56.8134707,68.2255433 58.4629944,70.4521844 60.1921868,72.6657954 C60.2455677,70.9342543 60.9300042,67.0750184 61.1240961,66.6603915 C62.3049998,64.1422869 65.7088815,61.5513209 68.4704151,63.3401737 C71.5762114,65.3570344 68.7601064,69.1683148 66.9885601,70.8931389 C66.2625214,71.6003163 62.6711197,74.1918688 61.404355,74.2035743 C65.5822552,79.4236211 70.1936743,84.5543587 74.8822485,89.4995411 C74.4938155,87.2856965 73.986452,81.1889741 74.0431058,80.5123644 C74.3341212,77.0197258 76.6314574,71.4333633 81.1574892,72.7945743 C85.5485341,74.1131226 83.6060132,79.9164455 82.1029184,82.6828794 C81.1924854,84.3571704 79.9335829,86.0584238 78.4154657,87.2261317 C77.8118913,87.6901272 76.8009058,87.9664085 76.2876159,88.4659276 C75.7734676,88.9666016 75.9921053,89.6196191 75.4423833,90.0912325 C77.9762435,92.7521376 80.5277749,95.3575696 83.042811,97.8906944 C84.2294538,99.0863503 85.4376626,100.258736 86.6578058,101.416546 C87.3253467,101.139891 88.2772075,101.503692 88.2276324,102.448262 C88.2204306,102.58548 88.1886894,102.703814 88.145893,102.81237 C89.0705376,103.671928 90.0010866,104.525394 90.9389011,105.369641 C90.917501,105.123731 90.9237383,104.77687 90.9668256,104.297943 C90.0529565,105.596868 90.4276427,102.577391 90.330361,101.907525 C90.0190427,99.7597133 89.4214199,97.6781161 89.4414857,95.4868488 C89.4709466,92.3185099 91.4789854,87.0073972 95.7045824,88.8940656 C99.5900629,90.6257405 98.176385,95.3215812 96.7106445,98.2655633 C95.7827295,100.128532 94.5130438,101.792023 93.1860505,103.384517 C92.5980763,104.09092 91.8498682,105.418113 91.3792698,105.765472 C96.6027851,110.44466 102.004292,114.92477 107.326885,119.494747 C107.398617,119.184512 107.457848,118.876824 107.508851,118.589104 C107.405816,118.705307 107.265742,118.759575 107.08599,118.748968 C106.453059,115.607163 102.084364,98.843966 111.157493,101.803481 C117.301778,103.813357 112.964838,116.102727 108.382287,120.401545 C111.163192,122.801789 113.917758,125.232653 116.607877,127.736142 C118.554444,129.547544 120.443495,131.421133 122.260667,133.356959 C121.320351,130.850244 120.434343,127.605198 121.015877,125.022529 C121.862562,121.26418 125.82971,117.715528 129.703007,119.85415 C136.997069,123.89892 124.795852,130.178153 123.346284,134.531729 C129.122738,140.882191 136.188375,159.69205 133.318005,154.337236 C128.720279,145.760945 122.647171,138.480593 115.635734,131.87071 C113.059936,132.767877 110.126234,134.897866 108.663012,135.528867 C105.980223,136.686024 100.829381,138.344401 99.1202383,134.699893 C97.4398227,131.116086 101.729214,129.11184 104.387445,128.308584 C106.956439,127.533457 109.272403,127.627056 111.668835,128.262445 C107.274969,124.367846 102.754156,120.619398 98.2578414,116.845034 C94.2252613,120.150671 88.4335996,129.602818 83.4296797,124.691931 C77.6875053,119.056436 88.6698249,113.328593 93.3487397,113.77584 C93.9231089,113.830296 94.4788229,113.951374 95.0206762,114.116125 C90.2491934,110.06657 85.5514953,105.933679 81.1087983,101.510145 C78.5190115,101.982195 70.9544852,113.290692 65.8202892,108.33099 C63.2552746,105.853247 64.1335753,101.994157 66.6129457,99.7875937 C69.1019894,97.571537 72.7107647,97.5751961 75.7779226,98.3216825 C77.103818,98.6426589 78.3270358,99.2554509 79.4674239,100.002303 C79.515958,100.004843 79.5624821,100.007678 79.6090271,100.010113 C75.2372469,95.6110892 70.8387284,91.1134695 66.6022475,86.4623356 C66.5283996,86.48607 66.4525208,86.5104981 66.376621,86.5353251 C66.1204057,86.8491047 65.6915351,86.9638561 65.2986556,86.8944981 C61.8640911,88.0711116 57.1915759,89.8125178 53.6221597,89.1273443 C51.160528,88.6549367 48.92711,86.6541299 51.0106685,84.1908622 C52.70468,82.1875908 57.3006169,82.4753006 59.5419399,82.9497786 C61.0951793,83.2790524 62.8440052,84.4953284 64.5222891,85.3455265 C64.6512231,85.0854839 64.8762,84.918464 65.1325214,84.8382811 C60.949097,80.1643247 56.9572536,75.3288004 53.336659,70.2831127 C49.6039977,70.8613484 44.4836775,75.0544272 41.1947256,71.1460526 C37.7646302,67.0690979 44.2154823,64.6895819 47.281947,65.0768456 C48.3174533,65.2074322 49.3384298,65.5008522 50.3241473,65.8884235 C47.6895456,61.7343025 45.6775101,57.2939732 44.2639834,52.6305743 C44.228745,52.6483295 44.2006255,52.6672572 44.1606133,52.6847625 C44.1975686,52.6646973 44.2270281,52.6430398 44.2615965,52.6228497 C44.1205348,52.156285 43.9851683,51.6876185 43.8562716,51.2172906 C43.616741,51.0839602 43.3929141,50.9858503 43.2857327,50.9454426 C44.6789894,51.9059202 38.8010705,52.3758916 37.7002392,52.4638781 C35.2666475,52.6581129 32.0065099,52.7306963 30.2210797,50.7373339 C28.7216843,49.0629286 28.8092313,46.5892034 30.6447659,45.1881158 C32.857223,43.4991646 36.2900217,44.5755738 38.517487,45.5725069 Z M142.681756,186.248071 C142.578425,187.665042 142.322368,188.962447 141.844182,190.032389 C142.20277,188.81422 142.477867,187.548205 142.681756,186.248071 Z" transform="translate(85.181756, 102.532389) scale(-1, 1) rotate(-21.000000) translate(-85.181756, -102.532389) "></path>
                            </g>
                        </g>
                        <g id="Plant-Left" mask="url(#mask-2)">
                            <g transform="translate(22.000000, 20.000000)">
                                <path d="M104.678744,65.7412599 C107.170823,62.229234 111.795408,53.3098412 115.302962,52.0548889 C117.562152,51.2465836 116.903453,59.6078825 116.931353,61.2021988 C117.040002,67.3703573 116.432435,73.4994048 115.68214,79.6157761 C114.330408,90.6466266 109.910363,100.470437 103.847944,109.858826 C100.728351,114.689723 97.069317,119.579198 92.0013832,122.593446 C89.6686084,123.981568 86.8616944,124.213986 84.5579328,125.409966 C81.8748661,126.802244 83.3360589,125.676734 82.1268922,128.44007 C80.4477082,132.276592 79.9106094,137.226115 79.1336774,141.319821 C75.5663863,160.112156 66.9300415,259.453339 68.4272526,278.568736 C68.5602289,280.263041 66.1699063,280.668207 66.05058,278.599815 C65.4163402,267.632622 70.9045616,191.684979 73.6734623,166.847916 C76.442363,142.010853 79.2443641,120.06855 82.0539254,111.475704 C85.4623419,101.050755 91.6181372,88.513949 96.742407,78.792233 C99.1225918,74.2757433 101.71704,69.914844 104.678744,65.7412599 Z" id="Leaf" fill="#69A1AC"></path>
                                <path d="M123.218591,188.33394 C129.667458,183.632419 136.647872,192.505591 130.812312,197.207834 C127.586275,199.806949 124.213643,198.882373 122.314943,196.716393 C121.082384,198.208352 119.92875,199.76834 118.820258,201.085988 C115.442965,205.101111 112.250914,209.212066 109.200237,213.418876 C102.862929,222.158421 97.4319694,231.391563 91.7535151,240.455871 C86.1496233,249.401849 80.5905406,258.393647 75.5112484,267.566279 C71.2083669,275.337723 65.4731726,284.480203 64,293 C66.2351935,274.930984 74.7167398,257.563461 84.8167822,241.634239 C94.83464,225.835875 106.331296,208.582308 121.842656,196.114584 C120.263979,193.809207 120.220155,190.518456 123.218591,188.33394 Z" id="Leaf" fill="#C1DEE2"></path>
                                <path d="M1.11744226,144.018106 C4.691514,144.722332 10.5315069,152.868218 13.4776078,155.971864 C16.9788507,159.660113 20.155347,163.59126 23.1495685,167.710125 C29.5955143,176.575811 35.3602799,186.001875 40.2622916,195.831609 C48.2538542,211.856043 54.656135,228.30568 59.3025441,245.755391 C62.1467796,256.43699 63.9883044,267.508052 65.0796911,278.501801 C65.2858041,280.575156 67.4433558,296.560332 64.3344559,296.991177 C61.5383281,297.379126 62.4019476,284.853305 62.2670547,283.149485 C60.7422366,263.927206 56.1743139,245.22409 49.8203752,227.10613 C48.4363962,223.159304 47.1506309,218.325147 44.937322,214.773385 C43.3434296,212.215107 44.9258918,213.107261 42.1248354,212.139076 C39.7196821,211.307238 36.9793522,211.510502 34.5164208,210.492263 C29.1659457,208.281574 24.8817501,203.989967 21.1263593,199.673116 C13.8283188,191.283693 8.04499289,182.207651 5.03038945,171.457845 C3.35809587,165.497429 1.82134344,159.502342 0.968540194,153.357617 C0.747934845,151.769386 -1.18459036,143.564519 1.11744226,144.018106 Z" id="Leaf" fill="#69A1AC"></path>
                                <path d="M15.2245708,8.06660071 C28.7066024,31.5761231 39.7855837,57.4007172 46.9393617,83.5571253 C51.2736974,99.4050097 54.3048285,115.667268 57.3164985,131.812053 C61.9795264,156.810241 66.3902158,181.806499 67.6448481,207.248729 C68.9070887,232.838403 71.4030844,262.353086 63.0695446,287 C67.2321895,261.976686 63.269069,235.341316 62.5673612,210.162701 C62.2320319,198.142839 61.2603099,186.24049 59.9855923,174.290866 C58.7486057,162.699087 56.7277197,151.162507 54.8458195,139.661839 C53.9291111,134.060807 52.9663606,128.468201 51.986147,122.878655 C51.6935196,121.211007 51.5699076,116.262514 50.5178225,115.12327 C49.4589237,113.976525 44.0562819,113.509036 42.3601026,112.667623 C38.9445802,110.972914 35.7318204,108.565703 32.8884444,106.022176 C27.4376556,101.1463 22.6957436,94.7753755 18.9530473,88.4950924 C10.2934187,73.9635053 6.83130349,56.2296776 7.00629279,39.4002508 C7.03991473,36.1327365 12.2661384,0.946836123 10.1672029,0.462297168 C10.2935767,0.313482441 10.4131165,0.15982676 10.5258326,0 C12.1149066,2.67520729 13.6742486,5.36854411 15.2245708,8.06660071 Z" id="Leaf" fill="#89C5CC"></path>
                                <path d="M161.542108,93.2821435 C161.752553,92.9809821 163.122217,90.8864946 162.432497,91.0203517 C163.836792,90.7478139 160.500978,93.3303486 164,91.7457171 C162.33864,93.3024681 163.297464,95.3247121 163.319639,97.4199283 C163.355817,100.821629 162.782166,104.195434 162.136424,107.524147 C161.116051,112.785826 159.595971,117.901716 157.389602,122.79571 C152.580751,133.460835 144.415077,143.727968 134.720904,150.395726 C129.935159,153.687867 125.244916,154.808719 119.786771,156.324296 C116.339176,157.281785 116.065776,159.051198 114.235784,162.370484 C110.425878,169.283847 106.683823,176.172341 103.323824,183.318961 C99.3117626,191.852778 95.4170187,200.396001 91.7431447,209.080044 C79.3665219,238.331782 69.293099,268.637021 64.0028451,300 C63.8733175,281.517892 68.1826238,262.482902 73.6183968,244.866379 C77.5780305,232.03138 82.7327298,219.65883 88.2307202,207.411531 C89.5629945,204.444479 91.5819353,200.627844 92.1477089,197.35209 C92.5438638,195.056934 91.3327014,192.849668 90.7781641,190.431899 C88.6162715,181.016659 88.7710053,170.468556 90.6694685,161.002974 C92.7626698,150.565373 98.8161111,145.720929 109.056289,144.24251 C112.801327,143.701719 117.561367,143.899923 120.995382,142.315622 C124.73669,140.590371 126.280037,134.919493 128.407481,131.279235 C134.121726,121.500732 140.911076,112.122551 148.707124,103.883352 C150.865776,101.601813 153.187205,99.4969382 155.649982,97.5459777 C157.203008,96.31503 160.48373,94.7985043 161.542108,93.2821435 Z" id="Leaf" fill="#89C5CC"></path>
                                <path d="M49.7760379,279 L81.2239621,279 C83.9853859,279 86.2239621,281.238576 86.2239621,284 C86.2239621,284.23974 86.2067195,284.47917 86.1723679,284.716436 L84.6111111,295.5 C83.2397392,304.972034 75.1209794,312 65.5501861,312 L65.4498139,312 C55.8790206,312 47.7602608,304.972034 46.3888889,295.5 L44.8276321,284.716436 C44.4319555,281.983507 46.326673,279.447271 49.059602,279.051594 C49.2968682,279.017243 49.5362979,279 49.7760379,279 Z" id="Base" fill="#9BC9CE"></path>
                            </g>
                        </g>
                    </g>
                    <g id="Plant-Right" transform="translate(190.000000, 153.000000)">
                        <ellipse id="Oval" fill="#D5D9DF" cx="55" cy="196" rx="24" ry="4"></ellipse>
                        <path d="M39.310377,55.484076 C32.5964018,55.8401476 24.7469619,60.5983918 24.7959551,67.9178204 C24.8316995,73.2360135 25.5436206,78.4678352 25.2951592,83.8079503 C25.0962263,88.0758327 24.1656214,92.2505666 22.7205161,96.2710338 C21.3309602,100.137137 17.9754884,103.656485 17.4302865,107.687942 C17.0827411,110.256717 17.7949445,113.744007 18.8947664,116.105355 C20.2322321,118.976362 19.6630339,118.798167 17.8845829,121.512046 C14.3996746,126.830424 11.3260441,132.231688 9.39404203,138.349224 C6.61105388,147.160673 5.24105352,157.26243 7.57201671,166.34251 C7.86837109,167.495576 8.51547814,171.677058 10.1622681,171.801004 C12.0015399,171.939776 10.9050008,169.624651 10.7270357,168.858276 C9.59225197,163.968251 8.59144937,159.694795 8.80326856,154.584979 C9.62081522,134.869616 22.2312541,120.611185 29.5859051,103.178245 C29.9961085,102.275988 30.8379556,100.141714 31.4308547,98.7297278 C32.3669029,96.5005146 33.1091296,92.3679092 34.5119121,90.6404738 C37.1537508,87.3862086 35.0625651,93.5900288 34.6062505,94.780366 C34.0293766,96.2860351 33.3891481,97.8891149 32.7756976,99.2198006 C29.9766863,105.383295 26.8374443,112.120104 23.9454503,118.474287 C39.5371985,120.336683 48.3411465,100.937752 51.1650286,88.4956746 C53.4917165,78.2447663 55.0880486,54.6819756 39.310377,55.484076" id="Leaf-Me-Alone!" fill="#69A1AC" transform="translate(29.509124, 113.635542) scale(-1, 1) rotate(6.000000) translate(-29.509124, -113.635542) "></path>
                        <path d="M103.877799,38.0597753 C92.6961902,38.9528601 85.517843,46.3802864 82.1762981,56.7688845 C80.3753249,62.367376 80.168899,68.1186594 79.1680836,73.8720188 C77.6625343,82.5280075 74.4231722,89.0876758 68.0923661,95.2545696 C66.1315261,97.1644673 64.6865449,99.125434 63.6593597,101.223415 C61.6202345,103.318075 59.845219,105.688424 58.5411512,108.586486 C56.8753231,112.287536 56.4039634,116.728048 58.3273088,120.417887 C58.8444036,121.409789 60.1344625,123.401065 61.4714925,124.305775 C56.4657675,135.037739 53.7134223,146.791499 54.0236792,158.530312 C54.2111518,165.616448 54.5547829,172.70549 54.9556859,179.782907 C55.0636372,181.683255 55.6783825,184.8213 56.6017367,181.634262 C57.4468056,178.719177 56.3870702,174.142896 56.2890076,171.097439 C55.8118795,156.261686 55.4039721,142.77241 61.4706684,128.911535 C62.1068392,127.458767 62.7813286,126.017625 63.4838359,124.588108 C63.5250387,124.564026 63.5633573,124.534963 63.6020879,124.506729 C63.6288697,124.527489 63.6531793,124.54991 63.6799611,124.570254 C63.7248721,124.489706 63.7862643,124.393796 63.8579571,124.286676 C64.0594387,124.077418 64.2353745,123.812938 64.4026578,123.517735 C64.940766,122.767062 65.549743,121.885187 65.5530392,121.402315 C65.5530392,121.398578 65.5509791,121.392766 65.5509791,121.389029 C69.3066118,115.217568 73.6081814,109.386152 78.0020451,103.668915 C77.9690829,103.710434 82.7679699,97.1329125 82.025908,100.770437 C81.6682679,102.523391 78.1384263,105.86156 76.7128103,107.718313 C73.5591501,111.84909 69.8558448,117.08304 66.7784097,122.144269 C66.3643218,122.383837 65.7792424,123.560084 65.3560899,124.436146 C65.1224702,124.87999 64.9045075,125.32757 64.6902531,125.717439 C75.5945671,129.344168 84.076982,122.038809 89.8610273,113.54184 C89.8680318,113.531876 89.8742122,113.521496 89.8808047,113.511531 C91.6409871,111.163603 93.4440205,108.832282 95.6965761,106.976359 C99.4546811,103.879419 103.479368,103.333022 107.910314,101.80884 C119.993852,97.6527368 125.131425,81.8881917 126.763055,70.1908985 C128.603995,56.9943355 119.599129,36.7585537 103.877799,38.0597753" id="Leaf-Me-Alone!" fill="#89C5CC"></path>
                        <path d="M91.99094,4.06880572 C78.9175166,14.3157341 71.0961105,29.9776089 64.560404,44.8161805 C57.2607937,61.3893798 51.5784569,78.4614019 48.9330945,96.3873114 C47.1953099,108.164733 45.2068134,119.981985 44.2413497,131.853994 C43.8981907,136.070295 43.7271255,140.318234 43.8098166,144.54854 C43.816738,144.896175 44.00439,154.34213 45.7285808,152.389482 C46.7091668,151.279057 45.552241,142.593263 45.5716543,141.176398 C45.6825611,133.196281 46.5623591,125.265227 47.7206195,117.374485 C49.6275392,104.382638 51.0615073,91.3922014 54.202714,78.6225742 C54.6714089,76.7159521 55.1127276,74.7062385 55.8390009,72.8786754 C56.6104522,70.9356197 55.8645558,71.7262989 57.5685646,71.153646 C59.2243324,70.596785 61.1204099,70.9760233 62.8619853,70.2303138 C69.7701712,67.2719187 74.4180267,57.8321961 77.8654918,51.6943734 C81.80849,44.6755272 84.6834856,37.0040913 87.1892498,29.3867583 C89.0295682,23.7900048 90.5705387,18.1867956 91.8060479,12.429649 C92.1953698,10.6151865 92.4726024,8.69949683 93.086829,6.94790908 C93.2523436,6.4754017 93.8611028,5.68394273 93.9039253,5.25091465 C93.9944966,4.33444511 93.5187381,3.72110109 93.5812329,2.94909691 C93.0434083,3.31091944 92.5128042,3.68440642 91.99094,4.06880572" id="Leaf-Me-Alone!" fill="#89C5CC" transform="translate(68.852336, 77.802051) rotate(-8.000000) translate(-68.852336, -77.802051) "></path>
                        <path d="M19,161 C19,180.882251 34.8938914,197 54.5,197 C74.1061086,197 90,180.882251 90,161" id="Base" fill="#89C5CC"></path>
                        <path d="M57.8900739,161.763258 L56,161.763258 C56.1311444,159.370088 56.3043633,156.981105 56.7007922,154.614578 C58.2170336,145.563721 62.957969,132.27038 73.3559368,130.80133 C73.7395344,130.74658 75.1505958,130.737385 76.8598734,130.838526 C77.6699654,130.38172 78.5774004,130.105463 79.5335069,130.041937 C88.3863604,129.383267 98.2728648,136.591019 102.543171,144.091745 C105.98565,150.139302 105.405716,158.080535 103.279431,164.505489 C101.855583,168.806903 98.7480308,174.93972 93.5657519,174.999485 C87.0821288,175.074295 86.7694762,166.987203 86.6440851,162.259493 C86.4774471,155.974129 85.6904534,150.498729 80.7828799,146.21445 C79.6390993,145.216415 78.3889014,144.338328 77.2335716,143.354085 C75.4244762,141.813567 73.4252319,140.236271 73.1921861,137.687687 C72.8704591,134.171578 74.8371183,133.538821 77.8399032,134.192057 C78.351779,134.303229 83.5080722,136.638246 82.7445894,134.792634 C82.5115436,134.228836 81.6602046,133.782061 80.585719,133.447293 C77.8052557,133.142198 74.4894057,132.788205 73.535774,132.999681 C63.2479358,135.277441 59.2424351,149.659092 58.1786738,158.796462 C58.0638691,159.782742 57.9710317,160.77224 57.8900738,161.763258 Z" id="Leaf-Me-Alone!" fill="#69A1AC"></path>
                    </g>
                    <g id="Plant-Left" transform="translate(29.000000, 20.000000)" fill="#89C5CC">
                        <path d="M8.22457078,8.06660071 C21.7066024,31.5761231 32.7855837,57.4007172 39.9393617,83.5571253 C44.2736974,99.4050097 47.3048285,115.667268 50.3164985,131.812053 C54.9795264,156.810241 59.3902158,181.806499 60.6448481,207.248729 C61.9070887,232.838403 64.4030844,262.353086 56.0695446,287 C60.2321895,261.976686 56.269069,235.341316 55.5673612,210.162701 C55.2320319,198.142839 54.2603099,186.24049 52.9855923,174.290866 C51.7486057,162.699087 49.7277197,151.162507 47.8458195,139.661839 C46.9291111,134.060807 45.9663606,128.468201 44.986147,122.878655 C44.6935196,121.211007 44.5699076,116.262514 43.5178225,115.12327 C42.4589237,113.976525 37.0562819,113.509036 35.3601026,112.667623 C31.9445802,110.972914 28.7318204,108.565703 25.8884444,106.022176 C20.4376556,101.1463 15.6957436,94.7753755 11.9530473,88.4950924 C3.29341874,73.9635053 -0.168696513,56.2296776 0.00629279124,39.4002508 C0.0399147306,36.1327365 5.26613844,0.946836123 3.16720294,0.462297168 C3.29357666,0.313482441 3.41311653,0.15982676 3.5258326,0 C5.11490663,2.67520729 6.67424865,5.36854411 8.22457078,8.06660071 Z" id="Leaf"></path>
                    </g>
                </g>
            </g>
        </g>
    </g>
</svg>