<svg width="435" height="311" xmlns="http://www.w3.org/2000/svg">
    <g fill="none" fill-rule="evenodd">
        <path d="M431.888 146.424c-1.675-.494-3.556-.597-5.291-.687-9.303-.523-18.74 3.276-25.176 9.95-5.478 5.681-7.393 13.087-8.923 20.602-.151.746-.246 1.491-.355 2.242a6.642 6.642 0 0 1-.08.44c-.417.326-.652.724-.452 1.194a50.804 50.804 0 0 0-2.637 5.732c-2.265 5.815-4.569 11.74-3.847 18.072.51-3.42 1.326-6.898 2.244-10.234.052-.191.108-.381.166-.57l.017-.06c.314-1.02.697-2.002 1.147-2.965l.015-.031c.06-.127.122-.253.183-.378.128-.26.26-.52.397-.778.046-.088.091-.177.135-.267.65-1.332.993-2.86 1.589-4.244a30.745 30.745 0 0 1 .468-.992 42.27 42.27 0 0 1 1.33-2.47c.235-.153.384-.565.604-.933.045-.073.391-.553.504-.835.275-.455.55-.911.827-1.365l-.023.006.826-1.301.182-.285.295-.453a89.356 89.356 0 0 1 2.876-4.15c.356-.486 1.17-1.16 1.357-1.72.007-.02.01-.04.014-.06 2.138-2.618 4.555-5.002 7.381-6.828-.349.331-1.123 1.484-1.322 1.709-.61.688-1.263 1.324-1.919 1.967-1.175 1.152-2.328 2.345-3.366 3.62-1.9 2.33-3.572 4.805-5.166 7.338-.014.014-.03.028-.043.043-.77.83-1.31 2.13-1.89 3.102 2.084-.801 4.359-1.26 6.489-1.951 2.124-.69 4.198-1.479 6.214-2.434 2.68-1.27 5.47-2.72 8.035-4.403 2.914-1.55 5.428-3.79 7.675-6.167 2.66-2.813 5.115-5.666 6.757-9.192.807-1.733 1.473-3.552 1.923-5.408.02-.08.044-.168.07-.259a18.19 18.19 0 0 0 1-1.93c.462-1.05 1.461-2.17-.23-2.667" fill="#69A1AC"/>
        <path d="M433.484 180.974c-1.874-1.471-4.466-2.004-6.82-2.169-9.196-.643-18.078 2.165-25.9 6.726-4.286 2.5-8.194 5.79-11.684 9.258-2.014 2.001-3.838 4.191-5.195 6.674-.916 1.676-1.587 3.441-2.087 5.276-.609 2.236-1.129 4.525-1.452 6.819-.127.903-.991 5.683.512 5.87a2.089 2.089 0 0 0-.024.333c-3.636 4.896-6.08 10.76-8.357 16.322-1.98 4.84-3.785 9.735-5.088 14.795a164.696 164.696 0 0 0-3.88 20.272 191.316 191.316 0 0 0-.498 4.403l-.39 3.76c-.144 1.405-.505 3.009-.38 4.424.11 1.233 1.178 1.122 1.31-.088.159-1.46.252-2.93.419-4.39.221-1.94.445-3.88.676-5.819 1.608-13.466 5.026-26.607 10.508-39.05 2.218-5.036 4.688-9.777 7.757-14.364 2.699-4.033 5.876-7.898 9.098-11.48 3.13-3.48 6.37-6.866 10.11-9.739 3.034-2.331 6.331-4.316 9.706-6.142 4.286-2.318 8.56-4.574 13.144-6.264 2.384-.878 4.803-1.644 7.202-2.479.431-.15.893-.293 1.31-.472 1.393-.6 1.023-1.675.003-2.476" fill="#C1DEE2"/>
        <path d="M393.19 225.584c3.73.261 7.014.978 10.347 2.7 2.877 1.487 5.462 3.37 7.957 5.397 3.51 2.85 6.208 6.072 7.964 10.213 1.049 2.474 1.704 5.916.705 8.465-1.176 3.001-3.997 5.376-7.438 4.592-2.127-.485-4-2.047-5.541-3.501-1.844-1.74-3.275-3.778-4.418-6.01-1.865-3.64-2.828-7.675-4.364-11.45-.729-1.792-1.428-3.594-2.331-5.311-.447-.85-.928-1.696-1.65-2.355-.386-.353-2.072-1.034-1.362-1.716-9.68-.55-18.767 6.28-21.267 15.344-.233.845-.428 1.7-.631 2.552-.129.538-.233 2.548-.744 2.862-1.127.692-.513-1.607-.443-1.94.18-.859.367-1.716.561-2.572 1.054-4.655 3.455-8.883 7.183-11.994 4.263-3.558 9.828-5.67 15.472-5.276" fill="#89C5CC"/>
        <path d="M85.32 202.024c-4.598-4.693-9.212-9.329-14.35-13.462-3.028-2.435-6.219-4.65-9.344-6.959.36.313.715.635 1.06.965-.976-.656-2.253-1.027-3.287-1.635-1.154-.677-2.256-1.452-3.338-2.234-2.111-1.524-4.19-3.078-6.361-4.523-2.418-1.61-4.924-3.098-7.383-4.647-2.087-1.315-4.2-2.755-6.432-3.83-1.217-.586-2.437-1.28-3.659-1.891-.409-.205-4.558-2.801-4.548-2.81.23-.17 2.318.802 2.64.933.944.382 1.846.838 2.753 1.294-.498-.974-.892-1.996-1.106-3.072-.067-.332-.597-2.75-.326-2.954.136-.1 1.46 4.226 1.528 4.642.055.338.047.824.158 1.144.18.517.171.36.568.652.728.534 1.693.867 2.48 1.313.425.235 1.74 1.166 2.531 1.432 2.396 1.153 4.824 2.928 7.1 4.4a16.504 16.504 0 0 1-1.383-3.495c-.079-.29-.93-2.887-.723-3.04.232-.174 1.853 3.792 1.95 4.168.178.697.215 1.473.438 2.152.245.745 1.01 1.009 1.7 1.443a122.423 122.423 0 0 1 7.394 5.07c2.629-4.633-.402-10.227-2.956-14.114-1.84-2.802-4.32-5.203-6.936-7.3-3.492-2.799-7.488-5.034-11.479-7.08-4.65-2.382-9.676-3.858-14.9-4.54-2.733-.357-5.53-.347-8.29-.233-1.348.056-2.642.233-3.935.669-.582.197-1.145.445-1.694.722-.416.211-1.425.434-1.664.748-1.973 2.545-2.982 5.08-2.828 8.278.146 3.027 1.11 6.055 2.42 8.755 1.457 3.007 3.332 5.736 5.784 8.026 1.871 1.747 3.963 3.268 6.04 4.769 7.39 5.338 16.76 9.98 26.331 8.788 3.098-.386 6.045-1.46 8.799-2.92.649-.343 1.294-.691 1.906-1.097.413-.274 1.517-1.507 1.933-1.552.57-.062 1.796 1.086 2.33 1.436a220.7 220.7 0 0 1 11.883 8.369c4.118 3.1 8.034 6.41 11.834 9.876a210.253 210.253 0 0 1 4.793 4.475c.365.354 1.258 1.66 1.921 1.72.42.036.702-.318.642-.702-.104-.668-1.522-1.668-1.993-2.149" fill="#C1DEE2"/>
        <path d="M58.838 197.84c-.552-.6-1.173-1.141-1.902-1.526-.185-.098-1.559-.749-1.65-.604-.21.336 3.386 1.939 3.552 2.13m6.544-4.052c-.004.025.47.837.599 1.086.275.53.528 1.072.766 1.614-.352-.958-.714-1.846-1.365-2.7m-33.414 6.754c-.46.15-1.01-.433-.414-.58.483-.117.46-.145.678-.536.177-.317.287-.704.443-1.037.33-.707.705-1.381 1.163-2.014a16.148 16.148 0 0 1 3.518-3.51c2.338-1.722 4.957-3.297 7.733-4.095 4.413-1.267 9.43-1.365 13.842-.516 2.732.526 5.227 1.449 7.034 3.652.903 1.1 1.61 2.392 1.916 3.816.08.372.063.786.163 1.15.154.56.086.411.738.518.713.116 1.425.235 2.137.355 1.864.317 3.739.653 5.554 1.172.598.17 1.182.38 1.753.622.431.184 2.15.76 2.357 1.323.344.937-.82.516-1.182.313a13.854 13.854 0 0 0-.972-.495 15.8 15.8 0 0 0-2.584-.914c-.958-.254-1.936-.442-2.91-.63-.908-.176-1.82-.336-2.732-.488-.507-.085-1.015-.167-1.522-.25-.174-.027-.48-.177-.457.05-1.067-.203-2.222-.168-3.309-.221-1.332-.065-2.669-.116-4.006-.07-.964.035-1.929.102-2.888.236-.561.078-1.113.192-1.664.335-.302.078-1.494.247-1.66.512.072-.114 1.386-.009 1.553-.016.67-.028 1.334-.097 2-.175a30.986 30.986 0 0 1 3.718-.215c-.006.219-.855.612-1.063.757-.465.327-.91.684-1.327 1.074-.733.688-1.611 1.54-2.12 2.354.15-.24.886-.554 1.148-.737.418-.295.829-.61 1.217-.945.359-.31.693-.644 1.023-.985.329-.342.777-1.052 1.209-1.28.026-.014.213.134.32.083.107-.051.242-.307.27-.318.401-.157 1.162.034 1.584.052 1.093.046 2.185.108 3.278.164.338.017.626-.062.753.189.135.266-.117.97-.19 1.262-.267 1.082-.739 2.054-1.479 2.895-1.386 1.575-3.09 2.628-5.015 3.335-7.371 2.71-15.206 3.815-22.552 1.056-3.042-1.142-7.621-3.186-7.056-7.248" fill="#89C5CC"/>
        <g fill="#89C5CC">
            <path d="M46.232 236.438a70.56 70.56 0 0 0-2.827.553c-.715.157-1.837.234-2.384.694-.57.477-.394 1.218-.202 1.73 1.017 2.704 2.731 4.96 5.752 6.47 4.65 2.326 9.639 3.045 15.34 2.752 4.005-.207 7.504-1.518 10.004-4.212 2.65 2.696 4.847 5.81 6.254 9.095.694 1.622 1.11 3.27 1.343 5.005.15 1.11.266 2.225.31 3.349.018.489-.165 1.265.153 1.674.373.48 1.324.365 1.667-.16.286-.439.091-1.165.085-1.622-.01-.76-.03-1.518-.08-2.274-.083-1.224-.2-2.445-.42-3.65-.494-2.705-1.74-5.288-3.244-7.674-2.885-4.577-6.927-8.384-12.618-10.926-3.499-1.564-7.228-1.79-11.368-1.533-2.578.16-5.205.277-7.765.729"/>
            <path d="M64.69 253.51c-9.909 1.746-15.471 9.228-17.471 16.338-.754 2.68-.555 5.441-.556 8.115 0 .859.278 2.117-.02 2.934-.107.297-.446.456-.211.792.142.204.368.304.68.295.639-.02 1.426-.71 1.923-1.017 4.123-2.536 6.556-5.763 8.347-9.502 1.11-2.318 2.227-4.717 2.704-7.13.29-1.475.346-2.983.276-4.447-.028-.577-.06-1.166-.164-1.733-.103-.562-.488-.801-.812-1.249 3.132-1.571 6.816-2.498 10.346-2.065 3.265.4 6.161 1.777 8.007 3.822.48.532.88 1.112 1.204 1.718.212.397.315.942.637 1.278.781.814 1.974-.033 1.697-.87-.77-2.336-2.932-4.436-5.446-5.711-3.17-1.609-7.2-2.264-11.14-1.569"/>
        </g>
        <g>
            <g transform="translate(75)">
                <rect fill="#F2F2F2" width="301" height="311" rx="8"/>
                <rect fill="#FFF" x="223.688" y="38.103" width="62.88" height="73.116" rx="8"/>
                <g transform="translate(232.966 52.52)" fill="#DDE3E9">
                    <ellipse cx="22.678" cy="14.259" rx="14.514" ry="14.259"/>
                    <rect y="32.082" width="45.356" height="5.347" rx="2.674"/>
                    <rect x="7.257" y="40.994" width="30.842" height="5.347" rx="2.674"/>
                </g>
                <path d="M8 0h285a8 8 0 0 1 8 8v16.715H0V8a8 8 0 0 1 8-8z" fill="#C5CFD6"/>
                <g transform="translate(9 10)" fill="#F2F2F2">
                    <circle cx="4" cy="4" r="4"/>
                    <circle cx="16" cy="4" r="4"/>
                    <circle cx="28" cy="4" r="4"/>
                </g>
                <g transform="translate(223.688 118.427)">
                    <rect fill="#FFF" width="62.88" height="174.036" rx="8"/>
                    <g transform="translate(18 18)">
                        <rect fill="#DDE3E9" width="26.88" height="23.051" rx="4"/>
                        <rect fill="#AFB9C5" y="30.143" width="26.88" height="22.164" rx="4"/>
                        <rect fill="#DDE3E9" y="59.4" width="26.88" height="22.164" rx="4"/>
                        <rect fill="#DDE3E9" y="117.914" width="26.88" height="22.164" rx="4"/>
                        <rect fill="#C5CFD6" y="88.657" width="26.88" height="22.164" rx="4"/>
                    </g>
                </g>
                <g transform="translate(16 44)">
                    <rect fill="#FFF" width="191" height="41.597" rx="4"/>
                    <g transform="translate(9 12.47)" fill="#DDE3E9">
                        <rect width="133" height="6.235" rx="3"/>
                        <rect y="10.392" width="89.274" height="6.235" rx="3"/>
                    </g>
                    <g transform="translate(163.588 13.784)">
                        <circle fill="#DDE3E9" cx="7" cy="7" r="7"/>
                        <circle fill="#F2F2F2" cx="7" cy="7" r="3"/>
                    </g>
                </g>
                <g transform="translate(16 92.643)">
                    <rect fill="#FFF" width="191" height="34.516" rx="4"/>
                    <g transform="translate(9 10.348)" fill="#DDE3E9">
                        <rect width="133" height="5.174" rx="2.587"/>
                        <rect y="8.623" width="89.274" height="5.174" rx="2.587"/>
                    </g>
                    <g transform="translate(163.588 10.246)">
                        <circle fill="#DDE3E9" cx="7" cy="7" r="7"/>
                        <circle fill="#F2F2F2" cx="7" cy="7" r="3"/>
                    </g>
                </g>
                <g transform="translate(16 134.211)">
                    <rect fill="#FFF" width="191" height="34.516" rx="4"/>
                    <g transform="translate(9 10.348)" fill="#DDE3E9">
                        <rect width="133" height="5.174" rx="2.587"/>
                        <rect y="8.623" width="89.274" height="5.174" rx="2.587"/>
                    </g>
                    <g transform="translate(163.588 10.246)">
                        <circle fill="#DDE3E9" cx="7" cy="7" r="7"/>
                        <circle fill="#AFB9C5" cx="7" cy="7" r="3"/>
                    </g>
                </g>
                <g transform="translate(16 258.915)">
                    <rect fill="#FFF" width="191" height="34.516" rx="4"/>
                    <g transform="translate(9 10.348)" fill="#DDE3E9">
                        <rect width="133" height="5.174" rx="2.587"/>
                        <rect y="8.623" width="89.274" height="5.174" rx="2.587"/>
                    </g>
                    <g transform="translate(163.588 10.246)">
                        <circle fill="#DDE3E9" cx="7" cy="7" r="7"/>
                        <circle fill="#F2F2F2" cx="7" cy="7" r="3"/>
                    </g>
                </g>
                <g transform="translate(16 217.347)">
                    <rect fill="#FFF" width="191" height="34.516" rx="4"/>
                    <g transform="translate(9 10.348)" fill="#DDE3E9">
                        <rect width="133" height="5.174" rx="2.587"/>
                        <rect y="8.623" width="89.274" height="5.174" rx="2.587"/>
                    </g>
                    <g transform="translate(163.588 10.246)">
                        <circle fill="#DDE3E9" cx="7" cy="7" r="7"/>
                        <circle fill="#F2F2F2" cx="7" cy="7" r="3"/>
                    </g>
                </g>
                <g transform="translate(16 175.779)">
                    <rect fill="#FFF" width="191" height="34.516" rx="4"/>
                    <g transform="translate(9 10.348)" fill="#DDE3E9">
                        <rect width="133" height="5.174" rx="2.587"/>
                        <rect y="8.623" width="89.274" height="5.174" rx="2.587"/>
                    </g>
                    <g transform="translate(163.588 10.246)">
                        <circle fill="#DDE3E9" cx="7" cy="7" r="7"/>
                        <circle fill="#F2F2F2" cx="7" cy="7" r="3"/>
                    </g>
                </g>
            </g>
        </g>
    </g>
</svg>